<?xml version="1.0" encoding="UTF-8" standalone="no"?>
<svg
   height="22"
   viewBox="0 0 22 22"
   width="22"
   fill="#000000"
   version="1.1"
   id="svg6"
   sodipodi:docname="dialpad_black_24dp.svg"
   inkscape:version="1.1 (c68e22c387, 2021-05-23)"
   xmlns:inkscape="http://www.inkscape.org/namespaces/inkscape"
   xmlns:sodipodi="http://sodipodi.sourceforge.net/DTD/sodipodi-0.dtd"
   xmlns="http://www.w3.org/2000/svg"
   xmlns:svg="http://www.w3.org/2000/svg">
  <defs
     id="defs10" />
  <sodipodi:namedview
     id="namedview8"
     pagecolor="#ffffff"
     bordercolor="#666666"
     borderopacity="1.0"
     inkscape:pageshadow="2"
     inkscape:pageopacity="0.0"
     inkscape:pagecheckerboard="0"
     showgrid="false"
     width="23px"
     inkscape:zoom="11.313708"
     inkscape:cx="-1.281631"
     inkscape:cy="0.48613591"
     inkscape:window-width="1920"
     inkscape:window-height="1017"
     inkscape:window-x="-8"
     inkscape:window-y="-8"
     inkscape:window-maximized="1"
     inkscape:current-layer="svg6" />
  <path
     d="M 0,0 H 24 V 24 H 0 Z"
     fill="none"
     id="path2" />
  <path
     d="m 3.3175922,0.92677669 c -1.4038349,0 -2.55242716,1.14859221 -2.55242716,2.55242721 0,1.4038349 1.14859226,2.5524272 2.55242716,2.5524272 1.4038349,0 2.5524272,-1.1485923 2.5524272,-2.5524272 0,-1.403835 -1.1485923,-2.55242721 -2.5524272,-2.55242721 z m 0,7.65728151 c -1.4038349,0 -2.55242716,1.1485923 -2.55242716,2.5524268 0,1.403835 1.14859226,2.552427 2.55242716,2.552427 1.4038349,0 2.5524272,-1.148592 2.5524272,-2.552427 0,-1.4038345 -1.1485923,-2.5524268 -2.5524272,-2.5524268 z m 0,7.6572808 c -1.4038349,0 -2.55242716,1.148593 -2.55242716,2.552428 0,1.403834 1.14859226,2.552427 2.55242716,2.552427 1.4038349,0 2.5524272,-1.148593 2.5524272,-2.552427 0,-1.403835 -1.1485923,-2.552428 -2.5524272,-2.552428 z M 18.632156,6.0316311 c 1.403834,0 2.552427,-1.1485923 2.552427,-2.5524272 0,-1.403835 -1.148593,-2.55242721 -2.552427,-2.55242721 -1.403835,0 -2.552428,1.14859221 -2.552428,2.55242721 0,1.4038349 1.148593,2.5524272 2.552428,2.5524272 z M 10.974874,16.241339 c -1.4038352,0 -2.5524275,1.148593 -2.5524275,2.552428 0,1.403834 1.1485923,2.552427 2.5524275,2.552427 1.403835,0 2.552427,-1.148593 2.552427,-2.552427 0,-1.403835 -1.148592,-2.552428 -2.552427,-2.552428 z m 7.657282,0 c -1.403835,0 -2.552428,1.148593 -2.552428,2.552428 0,1.403834 1.148593,2.552427 2.552428,2.552427 1.403834,0 2.552427,-1.148593 2.552427,-2.552427 0,-1.403835 -1.148593,-2.552428 -2.552427,-2.552428 z m 0,-7.6572808 c -1.403835,0 -2.552428,1.1485923 -2.552428,2.5524268 0,1.403835 1.148593,2.552427 2.552428,2.552427 1.403834,0 2.552427,-1.148592 2.552427,-2.552427 0,-1.4038345 -1.148593,-2.5524268 -2.552427,-2.5524268 z m -7.657282,0 c -1.4038352,0 -2.5524275,1.1485923 -2.5524275,2.5524268 0,1.403835 1.1485923,2.552427 2.5524275,2.552427 1.403835,0 2.552427,-1.148592 2.552427,-2.552427 0,-1.4038345 -1.148592,-2.5524268 -2.552427,-2.5524268 z m 0,-7.65728151 c -1.4038352,0 -2.5524275,1.14859221 -2.5524275,2.55242721 0,1.4038349 1.1485923,2.5524272 2.5524275,2.5524272 1.403835,0 2.552427,-1.1485923 2.552427,-2.5524272 0,-1.403835 -1.148592,-2.55242721 -2.552427,-2.55242721 z"
     id="path4"
     sodipodi:nodetypes="sssssssssssssssssssssssssssssssssssssssssssss"
     style="stroke-width:1.27621;fill:#4d4d4d" />
</svg>
